<svg width="17" height="17" viewBox="0 0 17 17" fill="none" xmlns="http://www.w3.org/2000/svg">
<path d="M13.6884 6.70605C13.6884 6.70605 13.3038 11.4767 13.0807 13.4862C12.9744 14.446 12.3816 15.0084 11.4104 15.0261C9.56239 15.0594 7.71222 15.0616 5.86489 15.0226C4.9306 15.0035 4.34764 14.434 4.24352 13.4912C4.01897 11.4639 3.63647 6.70605 3.63647 6.70605" stroke="#FF5363" stroke-width="1.37093" stroke-linecap="round" stroke-linejoin="round"/>
<path d="M14.6683 4.41992H2.65637" stroke="#FF5363" stroke-width="1.37093" stroke-linecap="round" stroke-linejoin="round"/>
<path d="M12.3538 4.41962C11.7977 4.41962 11.3189 4.02649 11.2098 3.48178L11.0377 2.62045C10.9314 2.22308 10.5716 1.94824 10.1615 1.94824H7.16312C6.75299 1.94824 6.39316 2.22308 6.28691 2.62045L6.11478 3.48178C6.0057 4.02649 5.52687 4.41962 4.97083 4.41962" stroke="#FF5363" stroke-width="1.37093" stroke-linecap="round" stroke-linejoin="round"/>
</svg>
