<svg width="19" height="19" viewBox="0 0 19 19" fill="none" xmlns="http://www.w3.org/2000/svg">
<path d="M9.53356 10.4431C9.9595 10.4431 10.3048 10.0978 10.3048 9.67182C10.3048 9.24588 9.9595 8.90059 9.53356 8.90059C9.10762 8.90059 8.76233 9.24588 8.76233 9.67182C8.76233 10.0978 9.10762 10.4431 9.53356 10.4431Z" stroke="#98A2B3" stroke-width="1.54247" stroke-linecap="round" stroke-linejoin="round"/>
<path d="M9.53356 5.04442C9.9595 5.04442 10.3048 4.69913 10.3048 4.27319C10.3048 3.84725 9.9595 3.50195 9.53356 3.50195C9.10762 3.50195 8.76233 3.84725 8.76233 4.27319C8.76233 4.69913 9.10762 5.04442 9.53356 5.04442Z" stroke="#98A2B3" stroke-width="1.54247" stroke-linecap="round" stroke-linejoin="round"/>
<path d="M9.53356 15.8417C9.9595 15.8417 10.3048 15.4964 10.3048 15.0705C10.3048 14.6445 9.9595 14.2992 9.53356 14.2992C9.10762 14.2992 8.76233 14.6445 8.76233 15.0705C8.76233 15.4964 9.10762 15.8417 9.53356 15.8417Z" stroke="#98A2B3" stroke-width="1.54247" stroke-linecap="round" stroke-linejoin="round"/>
</svg>
