<svg width="29" height="29" viewBox="0 0 29 29" fill="none" xmlns="http://www.w3.org/2000/svg">
<path d="M16.8099 2.78027H7.48992C6.87196 2.78027 6.27931 3.02576 5.84235 3.46272C5.40539 3.89968 5.15991 4.49232 5.15991 5.11028V23.7503C5.15991 24.3683 5.40539 24.9609 5.84235 25.3979C6.27931 25.8348 6.87196 26.0803 7.48992 26.0803H21.4699C22.0879 26.0803 22.6805 25.8348 23.1175 25.3979C23.5545 24.9609 23.7999 24.3683 23.7999 23.7503V9.77028M16.8099 2.78027L23.7999 9.77028M16.8099 2.78027V9.77028H23.7999M19.1399 15.5953H9.81992M19.1399 20.2553H9.81992M12.1499 10.9353H9.81992" stroke="#2E3A59" stroke-width="1.398" stroke-linecap="round" stroke-linejoin="round"/>
</svg>
